<?xml version="1.0" standalone="no"?><!DOCTYPE svg PUBLIC "-//W3C//DTD SVG 1.1//EN" "http://www.w3.org/Graphics/SVG/1.1/DTD/svg11.dtd"><svg jsname="BUfzDd" viewBox="0 0 1440 810" preserveAspectRatio="xMinYMin slice" aria-hidden="true" version="1.1" xmlns="http://www.w3.org/2000/svg" xmlns:xlink="http://www.w3.org/1999/xlink" style="bottom:0px;box-sizing:border-box;display:block;height:734.711px;left:0px;position:relative;right:0px;top:0px;width:1571.07px;perspective-origin:785.537px 367.355px;transform-origin:785.537px 367.355px;"><path fill="#efefee" d="M592.66 0c-15 64.092-30.7 125.285-46.598 183.777C634.056 325.56 748.348 550.932 819.642 809.5h419.672C1184.518 593.727 1083.124 290.064 902.637 0H592.66z" style="box-sizing:border-box;height:auto;overflow-x:visible;overflow-y:visible;width:auto;perspective-origin:0px 0px;transform-origin:0px 0px;fill:rgb(239, 239, 238);d:path('M 592.66 0 c -15 64.092 -30.7 125.285 -46.598 183.777 C 634.056 325.56 748.348 550.932 819.642 809.5 h 419.672 C 1184.52 593.727 1083.12 290.064 902.637 0 H 592.66 Z');"/><path fill="#f6f6f6" d="M545.962 183.777c-53.796 196.576-111.592 361.156-163.49 490.74 11.7 44.494 22.8 89.49 33.1 134.883h404.07c-71.294-258.468-185.586-483.84-273.68-625.623z" style="box-sizing:border-box;height:auto;overflow-x:visible;overflow-y:visible;width:auto;perspective-origin:0px 0px;transform-origin:0px 0px;fill:rgb(246, 246, 246);d:path('M 545.962 183.777 c -53.796 196.576 -111.592 361.156 -163.49 490.74 c 11.7 44.494 22.8 89.49 33.1 134.883 h 404.07 c -71.294 -258.468 -185.586 -483.84 -273.68 -625.623 Z');"/><path fill="#f7f7f7" d="M153.89 0c74.094 180.678 161.088 417.448 228.483 674.517C449.67 506.337 527.063 279.465 592.56 0H153.89z" style="box-sizing:border-box;height:auto;overflow-x:visible;overflow-y:visible;width:auto;perspective-origin:0px 0px;transform-origin:0px 0px;fill:rgb(247, 247, 247);d:path('M 153.89 0 c 74.094 180.678 161.088 417.448 228.483 674.517 C 449.67 506.337 527.063 279.465 592.56 0 H 153.89 Z');"/><path fill="#fbfbfc" d="M153.89 0H0v809.5h415.57C345.477 500.938 240.884 211.874 153.89 0z" style="box-sizing:border-box;height:auto;overflow-x:visible;overflow-y:visible;width:auto;perspective-origin:0px 0px;transform-origin:0px 0px;fill:rgb(251, 251, 252);d:path('M 153.89 0 H 0 v 809.5 h 415.57 C 345.477 500.938 240.884 211.874 153.89 0 Z');"/><path fill="#ebebec" d="M1144.22 501.538c52.596-134.583 101.492-290.964 134.09-463.343 1.2-6.1 2.3-12.298 3.4-18.497 0-.2.1-.4.1-.6 1.1-6.3 2.3-12.7 3.4-19.098H902.536c105.293 169.28 183.688 343.158 241.684 501.638v-.1z" style="box-sizing:border-box;height:auto;overflow-x:visible;overflow-y:visible;width:auto;perspective-origin:0px 0px;transform-origin:0px 0px;fill:rgb(235, 235, 236);d:path('M 1144.22 501.538 c 52.596 -134.583 101.492 -290.964 134.09 -463.343 c 1.2 -6.1 2.3 -12.298 3.4 -18.497 c 0 -0.2 0.1 -0.4 0.1 -0.6 c 1.1 -6.3 2.3 -12.7 3.4 -19.098 H 902.536 c 105.293 169.28 183.688 343.158 241.684 501.638 v -0.1 Z');"/><path fill="#e1e1e1" d="M1285.31 0c-2.2 12.798-4.5 25.597-6.9 38.195C1321.507 86.39 1379.603 158.98 1440 257.168V0h-154.69z" style="box-sizing:border-box;height:auto;overflow-x:visible;overflow-y:visible;width:auto;perspective-origin:0px 0px;transform-origin:0px 0px;fill:rgb(225, 225, 225);d:path('M 1285.31 0 c -2.2 12.798 -4.5 25.597 -6.9 38.195 C 1321.51 86.39 1379.6 158.98 1440 257.168 V 0 h -154.69 Z');"/><path fill="#e7e7e7" d="M1278.31,38.196C1245.81,209.874 1197.22,365.556 1144.82,499.838L1144.82,503.638C1185.82,615.924 1216.41,720.211 1239.11,809.6L1439.7,810L1439.7,256.768C1379.4,158.78 1321.41,86.288 1278.31,38.195L1278.31,38.196z" style="box-sizing:border-box;height:auto;overflow-x:visible;overflow-y:visible;width:auto;perspective-origin:0px 0px;transform-origin:0px 0px;fill:rgb(231, 231, 231);d:path('M 1278.31 38.196 C 1245.81 209.874 1197.22 365.556 1144.82 499.838 L 1144.82 503.638 C 1185.82 615.924 1216.41 720.211 1239.11 809.6 L 1439.7 810 L 1439.7 256.768 C 1379.4 158.78 1321.41 86.288 1278.31 38.195 L 1278.31 38.196 Z');"/></svg>