<?xml version="1.0" encoding="utf-8"?>
<!-- Generator: Adobe Illustrator 19.0.0, SVG Export Plug-In . SVG Version: 6.00 Build 0)  -->
<svg version="1.1" id="图层_1" xmlns="http://www.w3.org/2000/svg" xmlns:xlink="http://www.w3.org/1999/xlink" x="0px" y="0px"
	 viewBox="0 0 634 640" style="enable-background:new 0 0 634 640;" xml:space="preserve">
<style type="text/css">
	.st0{clip-path:url(#SVGID_2_);fill:#DF6B58;}
	.st1{clip-path:url(#SVGID_2_);}
</style>
<g>
	<g>
		<defs>
			<rect id="SVGID_1_" x="0" y="0" width="634" height="640"/>
		</defs>
		<clipPath id="SVGID_2_">
			<use xlink:href="#SVGID_1_"  style="overflow:visible;"/>
		</clipPath>
		<path class="st0" d="M76.8,76.8v486.4h460.8v-89.5c0-21.3,17-38.5,38.4-38.5c21.2,0,38.4,17.3,38.4,38.7V605c0,3.1,0,0,0,0
			c0,18.6-15.8,33.8-35.9,35c-0.8,0-1.6,0.1-2.4,0.1H38.5C17.2,640,0,623,0,601.6c0-4.5,0.8-8.8,2.2-12.8c-1.4-4-2.2-8.3-2.2-12.8
			V53.1c0-2.5,0.2-4.9,0.7-7.3C0.2,43.4,0,40.9,0,38.4C0,17.2,17.1,0,38.4,0H576c10.6,0,20.1,4.3,27.1,11.2
			c7.1,6.9,11.3,16.5,11.3,27.2c0,0.1,0,0.1,0,0.2c0,0,0,0.1,0,0.2v131.1c0,3.1,0,0,0,0c0,19.3-17,35-38.4,35
			c-21.2,0-38.4-17.5-38.4-38.5V76.8H76.8z"/>
		<path class="st0" d="M438.1,354.7l0.5,75.7c0,10.1,12.9,18.1,22.2,12.1c63.7-41.1,155.1-102.3,155.1-102.3
			c23.4-15.6,22.9-41.2,0-56.5c0,0-91.4-61-155.1-102.1c-4.7-3-9.3-2.9-13-1.1c-5.4,1.7-9.8,6.3-9.8,14v73.3H268.3
			c-6.8,0-12.3,5.3-12.3,11.9c0,0,0-7.6,0,1.9v61.2c0,6.6,5.5,11.9,12.3,11.9H438.1z"/>
		<path class="st1" d="M438.1,354.7"/>
	</g>
</g>
</svg>
