<?xml version="1.0" encoding="utf-8"?>
<!-- Generator: Adobe Illustrator 19.0.0, SVG Export Plug-In . SVG Version: 6.00 Build 0)  -->
<svg version="1.1" id="图层_1" xmlns="http://www.w3.org/2000/svg" xmlns:xlink="http://www.w3.org/1999/xlink" x="0px" y="0px"
	 viewBox="0 0 460.8 410.9" style="enable-background:new 0 0 460.8 410.9;" xml:space="preserve">
<style type="text/css">
	.st0{clip-path:url(#SVGID_2_);fill:#999896;}
</style>
<g>
	<g>
		<defs>
			<rect id="SVGID_1_" width="460.8" height="410.9"/>
		</defs>
		<clipPath id="SVGID_2_">
			<use xlink:href="#SVGID_1_"  style="overflow:visible;"/>
		</clipPath>
		<path class="st0" d="M128,409.9c-14.1,0-25.6-11.5-25.6-25.6v-76.8H51.2C22.9,307.5,0,284.6,0,256.3V51.5
			C0,23.2,22.9,0.3,51.2,0.3h358.4c28.3,0,51.2,22.9,51.2,51.2v204.8c0,28.3-22.9,51.2-51.2,51.2H241.4l-95,95
			C141.5,407.3,134.9,410,128,409.9L128,409.9z M51.2,51.5v204.8H128c14.1,0,25.6,11.5,25.6,25.6v40.7l58.6-58.6
			c4.8-4.9,11.3-7.7,18.2-7.7h179.2V51.5H51.2z M51.2,51.5"/>
	</g>
</g>
</svg>
