<?xml version="1.0" encoding="utf-8"?>
<!-- Generator: Adobe Illustrator 19.0.0, SVG Export Plug-In . SVG Version: 6.00 Build 0)  -->
<svg version="1.1" id="图层_1" xmlns="http://www.w3.org/2000/svg" xmlns:xlink="http://www.w3.org/1999/xlink" x="0px" y="0px"
	 viewBox="0 0 288 427.1" style="enable-background:new 0 0 288 427.1;" xml:space="preserve">
<style type="text/css">
	.st0{fill:#E2E2E2;}
	.st1{fill:none;}
	.st2{fill:#686868;}
	.st3{font-family:'NotoSansCJKsc-Light-GBpc-EUC-H';}
	.st4{font-size:63.9311px;glyph-orientation-vertical:0;writing-mode:tb;}
</style>
<g id="XMLID_8_">
	<path id="XMLID_1_" class="st0" d="M80.5,0h127C252,0,288,36,288,80.5v266.1c0,44.5-36,80.5-80.5,80.5h-127"/>
	<rect id="XMLID_7_" class="st0" width="80.5" height="427.1"/>
</g>
<path class="st1" d="M147,189.5h24v24h-24V189.5z"/>
<g id="XMLID_2_">
	<path id="XMLID_3_" class="st2" d="M96.9,175.9h13.7v-41H96.9V175.9z M172,138.3c0-3.8-3.1-6.8-6.8-6.8h-21.6l3.2-15.6l0.1-1.1
		c0-1.4-0.6-2.7-1.5-3.6l-3.6-3.6l-22.5,22.5c-1.3,1.2-2,2.9-2,4.8v34.2c0,3.8,3.1,6.8,6.8,6.8H155c2.8,0,5.3-1.7,6.3-4.2l10.3-24.1
		c0.3-0.8,0.5-1.6,0.5-2.5v-6.5l0,0L172,138.3z"/>
	<text id="XMLID_6_" transform="matrix(1 0 0 1 134.4496 187.3801)" class="st2 st3 st4">推荐</text>
</g>
</svg>
