<?xml version="1.0" encoding="utf-8"?>
<!-- Generator: Adobe Illustrator 19.0.0, SVG Export Plug-In . SVG Version: 6.00 Build 0)  -->
<svg version="1.1" id="Layer_1" xmlns="http://www.w3.org/2000/svg" xmlns:xlink="http://www.w3.org/1999/xlink" x="0px" y="0px"
	 viewBox="226 50.5 470 470" style="enable-background:new 226 50.5 470 470;" xml:space="preserve">
<style type="text/css">
	.st0{fill:#DD9894;}
	.st1{fill:#DE5F54;}
	.st2{fill:#E8C8C8;}
	.st3{fill:#FFFFFF;}
	.st4{fill:#D34040;}
	.st5{fill:#DB9591;}
</style>
<path class="st0" d="M269.4,141"/>
<path class="st1" d="M520,191.5v-141H319c-51.4,0-93,41.6-93,93v284c0,51.4,41.6,93,93,93h284c51.4,0,93-41.6,93-93v-201H555
	C535.7,226.5,520,210.8,520,191.5z"/>
<g>
	<g>
		<path class="st2" d="M448.4,386.5c-25.3-28.5-50.7-57-76-85.5c37.4-29.7,74.7-59.4,112.1-89.1c29.2,22.3,58.4,44.7,87.6,67
			C530.8,314.8,489.6,350.6,448.4,386.5z"/>
		<path class="st2" d="M448.4,386.5l-89.2,1.9c-5.1,0.1-10.1-5.7-9-10.4l18.3-83.9L448.4,386.5z"/>
	</g>
	<g>
		<polygon class="st3" points="448.7,376.8 362,290.7 478.4,182.6 565,268.7 		"/>
		<path class="st3" d="M448.7,376.8l-88.8,8.6c-5,0.5-10.5-4.9-9.8-9.7l11.9-85L448.7,376.8z"/>
	</g>
</g>
<path class="st2" d="M236.7,311.3"/>
<path class="st4" d="M695.7,275.3c-50.3-17-100.7-34-151-51c-0.6-25.2-1.1-50.4-1.7-75.7c51,25.8,102,51.6,153,77.3
	C695.9,242.4,695.8,258.8,695.7,275.3z"/>
<path class="st5" d="M520,191.5c0,19.3,15.7,35,35,35h141l-176-176V191.5z"/>
</svg>
