<?xml version="1.0" standalone="no"?><!DOCTYPE svg PUBLIC "-//W3C//DTD SVG 1.1//EN" "http://www.w3.org/Graphics/SVG/1.1/DTD/svg11.dtd"><svg t="1523626680827" class="icon" style="" viewBox="0 0 1024 1024" version="1.1" xmlns="http://www.w3.org/2000/svg" p-id="852" xmlns:xlink="http://www.w3.org/1999/xlink" width="200" height="200"><defs><style type="text/css"></style></defs><path d="M384 768a32 32 0 0 1-32-32v-96H288a64 64 0 0 1-64-64v-256a64 64 0 0 1 64-64h448a64 64 0 0 1 64 64v256a64 64 0 0 1-64 64h-210.24l-118.72 118.72A32 32 0 0 1 384 768zM288 320v256h96a32 32 0 0 1 32 32v50.88l73.28-73.28A32 32 0 0 1 512 576h224v-256H288z" p-id="853" fill="#2c2c2c"></path></svg>