<?xml version="1.0" encoding="utf-8"?>
<!-- Generator: Adobe Illustrator 19.0.0, SVG Export Plug-In . SVG Version: 6.00 Build 0)  -->
<svg version="1.1" id="图层_1" xmlns="http://www.w3.org/2000/svg" xmlns:xlink="http://www.w3.org/1999/xlink" x="0px" y="0px"
	 viewBox="0 0 249.3 231.2" style="enable-background:new 0 0 249.3 231.2;" xml:space="preserve">
<style type="text/css">
	.st0{fill:#EAEAEA;}
	.st1{fill:#EAE9E9;}
	.st2{fill:#F4F4F4;}
	.st3{fill:#E6E6E6;}
	.st4{fill:#EFEFEF;}
	.st5{fill:#AAAAAA;}
	.st6{fill:none;}
	.st7{fill:#2D4968;}
	.st8{font-family:'NotoSansCJKsc-Light-GBpc-EUC-H';}
	.st9{font-size:110px;}
	.st10{fill:#4978BC;}
</style>
<g id="XMLID_14_">
	<g id="XMLID_1_">
		<polygon id="XMLID_2_" class="st0" points="119.2,0 0,0 0,210.3 169.3,210.3 169.3,49.7 119.2,49.7 		"/>
		<polygon id="XMLID_6_" class="st1" points="119.2,49.7 169.3,49.7 119.2,0 		"/>
	</g>
	<polygon id="XMLID_24_" class="st2" points="117.8,0.3 1.6,0.3 1.6,206.9 166.6,206.9 166.6,49.1 117.8,49.1 	"/>
	<rect id="XMLID_23_" x="28.4" y="57.5" class="st3" width="108" height="8.7"/>
	<rect id="XMLID_22_" x="28.4" y="79.4" class="st3" width="108" height="8.7"/>
	<rect id="XMLID_21_" x="28.4" y="102.7" class="st3" width="108" height="8.7"/>
	<rect id="XMLID_20_" x="28.4" y="170.2" class="st3" width="108" height="8.7"/>
	<rect id="XMLID_19_" x="28.4" y="149" class="st3" width="108" height="8.7"/>
	<rect id="XMLID_18_" x="28.4" y="125.4" class="st3" width="108" height="8.7"/>
	<rect id="XMLID_17_" x="46.2" y="34.7" class="st3" width="72.5" height="8.7"/>
	<polygon id="XMLID_16_" class="st4" points="117.8,49.1 166.6,49.1 117.8,0.3 	"/>
	<path id="XMLID_15_" class="st5" d="M117.8,49.2h48.8c0,5.6,0,11.2,0,16.8C150.4,60.4,134.1,54.8,117.8,49.2z"/>
	<g id="XMLID_5_">
		<rect id="XMLID_4_" x="93.7" y="126.4" class="st6" width="166.7" height="108.6"/>
		<text id="XMLID_3_" transform="matrix(1 0 0 1 93.6932 223.2337)" class="st7 st8 st9">MD</text>
		<rect id="XMLID_7_" x="93.7" y="124.4" class="st6" width="166.7" height="108.6"/>
		<text id="XMLID_12_" transform="matrix(1 0 0 1 93.6932 221.2127)" class="st10 st8 st9">MD</text>
	</g>
</g>
</svg>
