<?xml version="1.0" encoding="utf-8"?>
<!-- Generator: Adobe Illustrator 19.0.0, SVG Export Plug-In . SVG Version: 6.00 Build 0)  -->
<svg version="1.1" id="图层_1" xmlns="http://www.w3.org/2000/svg" xmlns:xlink="http://www.w3.org/1999/xlink" x="0px" y="0px"
	 viewBox="0 0 518.8 614.6" style="enable-background:new 0 0 518.8 614.6;" xml:space="preserve">
<style type="text/css">
	.st0{fill:#DF6B58;}
</style>
<g>
	<path class="st0" d="M518.8,516.5c0-22.4-8.6-42.2-25.3-54.6c-46.7-31.8-83.7-51.8-149.4-80.4c-16.6-6.1-27.8-22-27.8-40.6
		c0-13.1,5.7-25.5,15.5-32.8c58.7-43.5,67.2-171.5,67.2-171.5C399,61.2,337.6,0,261.8,0C186,0,124.1,61.3,124.1,136.7
		c0,0,3.4,98.4,41.4,143.2h0c7.6,10.8,15.5,20.3,25.4,28.3c9.3,7.9,15.4,19.6,15.4,32.8c0,18.6-11.7,34.4-28.3,40.6
		c-54.8,22.9-101.4,47.4-150.5,80.4C10.8,474.3,0,494.1,0,516.5c0,31.8,21.9,58.5,51.5,66.1c0,0,76.5,32.1,205.6,32.1
		c128.1,0,205.6-32.1,205.6-32.1v0C491.8,574.9,518.8,548.3,518.8,516.5L518.8,516.5z M518.8,516.5"/>
</g>
</svg>
